<svg xmlns="http://www.w3.org/2000/svg" xmlns:xlink="http://www.w3.org/1999/xlink" viewBox="0,0,256,256" width="24px" height="24px" fill-rule="nonzero"><g fill="#eab6b6" fill-rule="nonzero" stroke="none" stroke-width="1" stroke-linecap="butt" stroke-linejoin="miter" stroke-miterlimit="10" stroke-dasharray="" stroke-dashoffset="0" font-family="none" font-weight="none" font-size="none" text-anchor="none" style="mix-blend-mode: normal"><g transform="scale(10.66667,10.66667)"><path d="M6.217,13.408c0.447,0.18 1.379,0.359 2.132,0.359c0.812,0 1.264,-0.247 1.3,-0.632c0.033,-0.35 -0.299,-0.398 -1.216,-0.637c-1.267,-0.342 -2.075,-0.871 -1.996,-1.717c0.092,-0.982 1.286,-1.724 3.118,-1.724c0.893,0 1.759,0.069 2.208,0.231l-0.154,1.238c-0.291,-0.112 -1.406,-0.266 -2.16,-0.266c-0.765,0 -1.16,0.265 -1.188,0.555c-0.034,0.367 0.363,0.385 1.356,0.676c1.345,0.376 1.933,0.905 1.856,1.725c-0.091,0.964 -1.165,1.784 -3.31,1.784c-0.893,0 -1.663,-0.179 -2.087,-0.359l0.141,-1.233zM18.821,9.366c4.884,-1.017 5.305,0.811 5.154,2.428l-0.284,2.992h-1.55l0.259,-2.729c0.056,-0.601 0.405,-1.776 -1.281,-1.732c-0.584,0.016 -0.873,0.104 -0.873,0.104c0,0 -0.051,0.726 -0.112,1.263l-0.294,3.095h-1.52l0.302,-3.05c0,-0.001 0.199,-2.371 0.199,-2.371zM12.653,9.224c0.349,-0.042 0.884,-0.084 1.621,-0.084c1.23,0 2.225,0.236 2.841,0.734c0.553,0.464 0.921,1.214 0.819,2.302c-0.094,1.012 -0.57,1.721 -1.264,2.159c-0.635,0.413 -1.434,0.59 -2.637,0.59c-0.709,0 -1.385,-0.042 -1.9,-0.126l0.52,-5.575zM13.669,13.69c0.119,0.025 0.274,0.051 0.582,0.051c1.231,0 2.098,-0.668 2.185,-1.607c0.127,-1.358 -0.643,-1.832 -1.94,-1.824c-0.168,0 -0.401,0 -0.525,0.025l-0.302,3.355zM5.335,14.813c-0.292,0.111 -0.896,0.187 -1.74,0.187c-2.427,0 -3.737,-1.254 -3.583,-2.913c0.186,-1.975 2.127,-3.087 4.252,-3.087c0.823,0 1.308,0.073 1.762,0.195l-0.146,1.331c-0.302,-0.112 -1.01,-0.215 -1.583,-0.215c-1.25,0 -2.312,0.41 -2.434,1.707c-0.109,1.16 0.637,1.714 2.044,1.714c0.49,0 1.212,-0.077 1.545,-0.189c0,0.001 -0.117,1.27 -0.117,1.27z"></path></g></g></svg>